<svg version="1.1" id="Layer_1" xmlns="http://www.w3.org/2000/svg" xmlns:xlink="http://www.w3.org/1999/xlink" x="0px" y="0px"
	 width="100%" viewBox="0 0 1024 1024" enable-background="new 0 0 1024 1024" xml:space="preserve">
<path fill="#FAFAFA" opacity="1.000000" stroke="none" 
	d="
M566.000000,1025.000000 
	C377.333344,1025.000000 189.166672,1025.000000 1.000000,1025.000000 
	C1.000000,683.666687 1.000000,342.333344 1.000000,1.000000 
	C342.333344,1.000000 683.666687,1.000000 1025.000000,1.000000 
	C1025.000000,342.333344 1025.000000,683.666687 1025.000000,1025.000000 
	C872.166687,1025.000000 719.333313,1025.000000 566.000000,1025.000000 
M832.710754,326.220428 
	C832.557678,324.397247 832.409302,322.573700 832.250732,320.750977 
	C828.283630,275.148895 806.884033,239.860992 768.721252,214.942413 
	C747.064453,200.801468 723.003906,193.831818 696.101624,193.725983 
	C669.052185,193.780365 642.002808,193.834747 614.164368,193.617279 
	C612.789307,193.708572 611.414246,193.799850 609.113403,193.699356 
	C543.360535,193.703979 477.607697,193.690430 411.854828,193.722473 
	C386.892944,193.734634 361.931122,193.851730 336.062042,193.682007 
	C255.944656,190.630676 192.252411,255.608887 192.868942,334.861267 
	C193.781372,452.145569 193.073715,569.442261 193.139221,686.733643 
	C193.144043,695.382385 193.214981,704.106262 194.282394,712.667175 
	C201.644608,771.713989 247.162735,819.874023 305.710632,830.016541 
	C331.616486,834.504272 357.890961,831.726746 384.498901,832.111267 
	C384.664093,832.066589 384.829254,832.021912 385.909363,832.199890 
	C489.552277,832.191162 593.195312,832.271973 696.837952,832.107361 
	C721.103638,832.068787 744.148743,826.340698 764.873169,813.439148 
	C811.169006,784.618530 833.843994,742.806885 832.771606,687.349792 
	C832.710022,658.574646 832.648376,629.799438 832.799927,600.140198 
	C832.737610,597.419739 832.675354,594.699280 832.789612,591.059326 
	C832.796814,579.276917 832.833313,567.494446 832.804871,555.712097 
	C832.750427,533.149475 832.659119,510.586945 832.800842,487.202087 
	C832.727478,485.794098 832.654175,484.386139 832.763916,482.059814 
	C832.785339,470.741638 832.845276,459.423340 832.820740,448.105286 
	C832.751892,416.320465 832.648315,384.535736 832.784912,351.952820 
	C832.712646,350.025024 832.640320,348.097198 832.758179,345.352539 
	C832.678894,339.243958 832.599670,333.135406 832.710754,326.220428 
z"/>
<path fill="#1A1E2B" opacity="1.000000" stroke="none" 
	d="
M697.022522,193.931702 
	C723.003906,193.831818 747.064453,200.801468 768.721252,214.942413 
	C806.884033,239.860992 828.283630,275.148895 832.250732,320.750977 
	C832.409302,322.573700 832.557678,324.397247 832.266968,326.772888 
	C831.547852,332.006256 831.119019,336.685944 831.082458,341.368713 
	C831.070007,342.964996 832.044434,344.568939 832.567993,346.169403 
	C832.640320,348.097198 832.712646,350.025024 832.295044,352.606812 
	C831.533936,354.688721 831.027344,356.116394 831.025940,357.544556 
	C830.985291,397.952087 830.979614,438.359680 831.064148,478.767059 
	C831.067078,480.171814 832.053101,481.574493 832.580872,482.978149 
	C832.654175,484.386139 832.727478,485.794098 832.337280,487.756104 
	C831.582825,489.206696 831.038696,490.102936 831.037537,490.999878 
	C830.994629,523.428650 830.984680,555.857483 831.070923,588.286072 
	C831.074158,589.518311 832.076294,590.747986 832.613037,591.978821 
	C832.675354,594.699280 832.737610,597.419739 832.338867,600.725464 
	C831.586487,602.207214 831.042114,603.103333 831.040588,604.000305 
	C830.994385,630.775146 830.980042,657.550049 831.068542,684.324646 
	C831.072754,685.608398 832.059753,686.888794 832.589111,688.170776 
	C833.843994,742.806885 811.169006,784.618530 764.873169,813.439148 
	C744.148743,826.340698 721.103638,832.068787 696.837952,832.107361 
	C593.195312,832.271973 489.552277,832.191162 385.360840,831.925720 
	C384.543060,831.758789 384.273773,831.866089 384.004517,831.973389 
	C357.890961,831.726746 331.616486,834.504272 305.710632,830.016541 
	C247.162735,819.874023 201.644608,771.713989 194.282394,712.667175 
	C193.214981,704.106262 193.144043,695.382385 193.139221,686.733643 
	C193.073715,569.442261 193.781372,452.145569 192.868942,334.861267 
	C192.252411,255.608887 255.944656,190.630676 336.797180,194.116608 
	C339.007111,194.698898 340.481903,194.975525 341.956757,194.975830 
	C429.607025,194.993805 517.257324,194.995239 604.907593,194.940781 
	C606.618286,194.939713 608.328674,194.256226 610.039185,193.891129 
	C611.414246,193.799850 612.789307,193.708572 614.839355,194.071838 
	C616.319763,194.680801 617.125000,194.969284 617.930481,194.970123 
	C643.079651,194.996506 668.228821,195.009705 693.377808,194.952209 
	C694.593506,194.949417 695.807678,194.286972 697.022522,193.931702 
M598.946960,588.923340 
	C598.946960,588.923340 598.808228,588.774048 598.283875,588.906006 
	C598.113708,589.209412 597.943542,589.512756 597.933350,589.927734 
	C597.933350,589.927734 597.810486,589.776123 597.287292,589.926392 
	C597.125854,590.238159 596.964355,590.549927 596.890259,590.809570 
	C596.890259,590.809570 596.791199,590.786377 596.157776,590.980347 
	C595.698486,591.945557 595.239197,592.910767 594.901978,593.885254 
	C594.901978,593.885254 594.811401,593.802856 594.163696,594.075439 
	C593.273987,597.392273 592.384216,600.709045 591.235535,604.823975 
	C591.302734,606.207214 591.369873,607.590515 591.226562,609.783691 
	C592.711182,615.726196 594.195801,621.668762 595.532959,628.067810 
	C595.528442,628.398804 595.619690,628.700867 595.807983,629.788391 
	C599.455872,638.371521 603.103699,646.954651 606.725098,656.063049 
	C606.886719,656.368286 607.048401,656.673462 607.209717,657.591553 
	C607.738892,658.132263 608.268066,658.672974 608.877380,659.003784 
	C608.877380,659.003784 608.760986,659.196045 608.766479,659.931580 
	C610.046875,662.141174 611.327271,664.350708 612.614319,666.827698 
	C612.614319,666.827698 612.761414,667.050964 612.821655,667.783081 
	C615.161316,671.988586 617.569031,676.157959 619.826050,680.407349 
	C624.071106,688.399719 623.132568,696.406982 618.483093,703.648010 
	C615.795471,707.833496 612.754761,712.359619 605.637451,710.018982 
	C603.066956,709.173584 598.404419,711.949158 595.998657,714.367554 
	C594.548401,715.825439 594.644714,720.244446 595.745728,722.505005 
	C597.701538,726.520630 602.305481,726.810181 605.891479,725.460266 
	C610.929993,723.563538 616.095642,721.190186 620.177612,717.786255 
	C624.654602,714.053040 627.961792,708.916931 632.007324,704.121033 
	C632.887695,705.078674 633.909485,706.336365 635.078491,707.437805 
	C642.223816,714.170227 650.593079,718.200928 660.490356,718.777100 
	C664.475708,719.009094 668.438965,717.901917 669.370483,713.952454 
	C670.018250,711.205933 669.118469,707.208496 667.367126,704.985413 
	C664.599670,701.472595 659.931702,700.585327 656.094421,703.296936 
	C652.685425,705.705994 650.157410,704.544800 647.432434,702.857300 
	C640.757385,698.723816 636.680176,689.794006 638.223694,682.145081 
	C639.141235,677.598145 640.525391,673.130066 641.928406,668.698975 
	C648.173950,648.973022 653.430908,629.086182 653.047241,608.135986 
	C652.835205,596.556152 645.675903,584.714844 634.569763,582.451233 
	C625.414673,580.585266 622.796143,575.954590 622.587219,567.933716 
	C622.504272,564.747192 622.091370,561.569275 622.582642,558.710022 
	C632.651794,562.131958 642.806335,565.325134 652.765930,569.040649 
	C662.522644,572.680603 669.514954,579.537781 672.282166,589.675598 
	C677.578796,609.079651 682.435547,628.604492 687.387512,648.101379 
	C688.813843,653.717102 686.317749,657.880981 681.699707,660.793518 
	C679.474609,662.196777 676.988464,663.335022 674.470337,664.096375 
	C667.315063,666.259705 660.091553,668.200989 652.875671,670.158752 
	C650.091614,670.914124 648.078796,672.336121 649.209900,675.429016 
	C650.185120,678.095520 650.038391,682.826599 654.619385,681.633728 
	C665.222717,678.872986 675.887634,676.069336 686.102905,672.170288 
	C698.075684,667.600403 702.793823,658.688293 699.929932,646.320007 
	C695.202942,625.905212 690.152344,605.546021 684.479370,585.376770 
	C680.988342,572.964783 673.268372,563.529419 660.516357,559.170715 
	C645.749939,554.123474 630.967285,549.123840 615.840454,543.471924 
	C615.051147,542.022217 614.275696,540.564819 613.470276,539.124146 
	C607.742432,528.878479 599.309937,522.316650 587.613098,520.288025 
	C578.214905,518.658020 574.549194,521.414307 573.161804,530.261475 
	C566.235962,525.780396 562.328979,519.276184 562.018005,511.192474 
	C561.660400,501.895630 562.094055,492.562592 562.407837,483.252808 
	C562.448730,482.039520 563.708923,480.779266 564.594971,479.696777 
	C570.466492,472.523499 577.335388,465.970062 582.117615,458.138855 
	C595.866821,435.623505 599.983704,410.390778 600.865173,384.450897 
	C600.918762,382.871490 600.900513,380.802277 601.826416,379.815460 
	C610.760864,370.293335 613.602173,358.553467 615.100769,346.071747 
	C618.388977,318.684052 607.155823,294.151520 582.764954,281.567261 
	C538.279358,258.615295 493.425140,258.084534 449.982666,284.351746 
	C425.677216,299.047913 411.734833,321.017609 411.115021,350.155121 
	C410.675934,370.797302 416.667206,390.006622 425.883575,408.154083 
	C437.268738,430.572021 451.695740,450.526672 474.348724,463.146088 
	C475.289093,463.669952 476.309143,465.112640 476.299805,466.118042 
	C476.184265,478.580994 476.767456,491.142670 475.365845,503.473755 
	C474.139313,514.264465 468.765533,523.350830 457.271271,526.344910 
	C457.733276,518.134949 454.942352,515.117615 446.732513,515.128784 
	C439.063141,515.139221 432.030701,517.170471 425.919647,521.981079 
	C419.119385,527.334290 415.704926,534.819458 412.032776,542.693115 
	C397.081055,547.243103 382.083740,551.649780 367.192047,556.388245 
	C355.288177,560.176025 348.001373,568.471252 344.894562,580.545776 
	C339.377319,601.988281 333.558716,623.356995 328.342834,644.872131 
	C324.809357,659.447510 331.431885,671.423096 345.904083,675.516113 
	C363.822205,680.583618 381.904449,685.393311 400.205322,688.723328 
	C450.453156,697.866394 501.193542,699.403992 552.062927,695.875427 
	C569.816772,694.643982 587.479065,692.084045 605.179077,690.094604 
	C607.855652,689.793823 610.207703,688.914490 609.736877,685.499634 
	C609.286194,682.231140 608.462402,679.116577 604.238708,679.081360 
	C602.746765,679.068909 601.254028,679.351318 599.759155,679.467346 
	C572.380493,681.593933 545.033813,684.726746 517.615051,685.602661 
	C475.909607,686.934937 434.351929,683.856628 393.383636,675.547791 
	C378.586609,672.546814 363.988739,668.293274 349.592499,663.695435 
	C341.828156,661.215637 338.887726,654.794373 340.833191,646.912292 
	C346.097870,625.582397 351.700653,604.335388 357.253754,583.077515 
	C359.174927,575.723083 364.288818,570.827332 371.092987,568.359619 
	C384.222412,563.597839 397.592102,559.498352 411.095459,556.121460 
	C411.653961,562.910034 411.773102,569.770142 412.864319,576.471985 
	C414.998840,589.581238 417.604767,602.616272 420.181763,615.649170 
	C420.774658,618.647644 420.502716,620.164307 417.239380,621.636963 
	C408.559082,625.554260 404.157593,632.799255 404.228302,642.300720 
	C404.329498,655.898254 415.908081,666.069092 430.606110,665.865234 
	C445.378082,665.660278 456.055115,655.770386 456.103394,642.247437 
	C456.143677,630.963379 449.092834,621.749451 437.917358,619.229675 
	C434.125824,618.374817 432.281921,616.806396 431.558899,612.930664 
	C429.215790,600.369995 426.243103,587.922363 424.081207,575.333557 
	C422.032043,563.401001 422.223541,551.508362 427.229279,540.092468 
	C432.610077,527.821167 441.265472,524.737915 452.439606,531.307556 
	C447.855774,532.761963 442.991211,533.692139 438.823669,535.923950 
	C437.112000,536.840576 436.692291,540.519836 436.174286,543.042908 
	C436.060028,543.599304 438.352570,545.457886 438.970154,545.223511 
	C442.601685,543.845520 443.646759,546.488403 445.157440,548.639465 
	C467.130005,579.926392 496.657745,602.529846 529.110718,621.809692 
	C533.844421,624.621887 537.857605,624.287415 541.713867,620.489258 
	C543.247925,618.978271 544.869873,617.553345 546.358521,615.999817 
	C563.317322,598.302490 575.780029,577.862854 583.285400,554.521729 
	C584.842163,549.680298 586.463318,546.311157 592.286194,548.893066 
	C592.490601,548.983704 592.876770,548.664368 593.176514,548.532104 
	C595.550720,541.423950 594.840149,539.803955 588.151733,537.227783 
	C587.066895,536.809937 585.930603,536.525879 584.859741,535.363281 
	C586.553345,531.435913 589.531128,532.549988 592.232666,533.721375 
	C594.443420,534.679932 596.428650,536.158630 598.797729,538.031006 
	C607.302368,549.483826 609.725891,563.020264 612.055481,576.599609 
	C612.565735,579.574280 611.411377,580.856201 608.590149,582.021484 
	C605.398926,583.339783 602.671875,585.781677 599.744812,587.809082 
	C599.744812,587.809082 599.812256,587.778320 599.286255,587.904968 
	C599.115906,588.207886 598.945557,588.510742 598.946960,588.923340 
z"/>
<path fill="#02060D" opacity="1.000000" stroke="none" 
	d="
M609.576294,193.795242 
	C608.328674,194.256226 606.618286,194.939713 604.907593,194.940781 
	C517.257324,194.995239 429.607025,194.993805 341.956757,194.975830 
	C340.481903,194.975525 339.007111,194.698898 337.250793,194.236115 
	C361.931122,193.851730 386.892944,193.734634 411.854828,193.722473 
	C477.607697,193.690430 543.360535,193.703979 609.576294,193.795242 
z"/>
<path fill="#0C101C" opacity="1.000000" stroke="none" 
	d="
M832.672363,482.518982 
	C832.053101,481.574493 831.067078,480.171814 831.064148,478.767059 
	C830.979614,438.359680 830.985291,397.952087 831.025940,357.544556 
	C831.027344,356.116394 831.533936,354.688721 832.181763,353.005920 
	C832.648315,384.535736 832.751892,416.320465 832.820740,448.105286 
	C832.845276,459.423340 832.785339,470.741638 832.672363,482.518982 
z"/>
<path fill="#0C101C" opacity="1.000000" stroke="none" 
	d="
M832.701294,591.519043 
	C832.076294,590.747986 831.074158,589.518311 831.070923,588.286072 
	C830.984680,555.857483 830.994629,523.428650 831.037537,490.999878 
	C831.038696,490.102936 831.582825,489.206696 832.228394,488.167267 
	C832.659119,510.586945 832.750427,533.149475 832.804871,555.712097 
	C832.833313,567.494446 832.796814,579.276917 832.701294,591.519043 
z"/>
<path fill="#0C101C" opacity="1.000000" stroke="none" 
	d="
M832.680359,687.760254 
	C832.059753,686.888794 831.072754,685.608398 831.068542,684.324646 
	C830.980042,657.550049 830.994385,630.775146 831.040588,604.000305 
	C831.042114,603.103333 831.586487,602.207214 832.232300,601.167480 
	C832.648376,629.799438 832.710022,658.574646 832.680359,687.760254 
z"/>
<path fill="#02060D" opacity="1.000000" stroke="none" 
	d="
M696.562073,193.828842 
	C695.807678,194.286972 694.593506,194.949417 693.377808,194.952209 
	C668.228821,195.009705 643.079651,194.996506 617.930481,194.970123 
	C617.125000,194.969284 616.319763,194.680801 615.233887,194.207764 
	C642.002808,193.834747 669.052185,193.780365 696.562073,193.828842 
z"/>
<path fill="#0C101C" opacity="1.000000" stroke="none" 
	d="
M832.663086,345.760986 
	C832.044434,344.568939 831.070007,342.964996 831.082458,341.368713 
	C831.119019,336.685944 831.547852,332.006256 832.171753,327.176086 
	C832.599670,333.135406 832.678894,339.243958 832.663086,345.760986 
z"/>
<path fill="#070711" opacity="1.000000" stroke="none" 
	d="
M384.251709,832.042358 
	C384.273773,831.866089 384.543060,831.758789 384.903381,831.814453 
	C384.829254,832.021912 384.664093,832.066589 384.251709,832.042358 
z"/>
<path fill="#F5F6F7" opacity="1.000000" stroke="none" 
	d="
M584.818054,536.180054 
	C585.930603,536.525879 587.066895,536.809937 588.151733,537.227783 
	C594.840149,539.803955 595.550720,541.423950 593.177368,548.534119 
	C592.876770,548.664368 592.490601,548.983704 592.286194,548.893066 
	C586.463318,546.311157 584.842163,549.680298 583.285400,554.521729 
	C575.780029,577.862854 563.317322,598.302490 546.358521,615.999817 
	C544.869873,617.553345 543.247925,618.978271 541.713867,620.489258 
	C537.857605,624.287415 533.844421,624.621887 529.110718,621.809692 
	C496.657745,602.529846 467.130005,579.926392 445.157440,548.639465 
	C443.646759,546.488403 442.601685,543.845520 438.970154,545.223511 
	C438.352570,545.457886 436.060028,543.599304 436.174286,543.042908 
	C436.692291,540.519836 437.112000,536.840576 438.823669,535.923950 
	C442.991211,533.692139 447.855774,532.761963 453.117188,531.090332 
	C454.978851,529.609192 456.162933,528.345337 457.347046,527.081482 
	C468.765533,523.350830 474.139313,514.264465 475.365845,503.473755 
	C476.767456,491.142670 476.184265,478.580994 476.299805,466.118042 
	C476.309143,465.112640 475.289093,463.669952 474.348724,463.146088 
	C451.695740,450.526672 437.268738,430.572021 425.883575,408.154083 
	C416.667206,390.006622 410.675934,370.797302 411.115021,350.155121 
	C411.734833,321.017609 425.677216,299.047913 449.982666,284.351746 
	C493.425140,258.084534 538.279358,258.615295 582.764954,281.567261 
	C607.155823,294.151520 618.388977,318.684052 615.100769,346.071747 
	C613.602173,358.553467 610.760864,370.293335 601.826416,379.815460 
	C600.900513,380.802277 600.918762,382.871490 600.865173,384.450897 
	C599.983704,410.390778 595.866821,435.623505 582.117615,458.138855 
	C577.335388,465.970062 570.466492,472.523499 564.594971,479.696777 
	C563.708923,480.779266 562.448730,482.039520 562.407837,483.252808 
	C562.094055,492.562592 561.660400,501.895630 562.018005,511.192474 
	C562.328979,519.276184 566.235962,525.780396 573.537903,530.729797 
	C577.075745,533.893860 580.056702,536.985352 584.818054,536.180054 
M490.028046,429.555695 
	C490.859619,433.950439 489.024139,436.024811 484.377655,435.177246 
	C481.087555,434.577148 477.955597,433.110077 474.536377,431.956940 
	C479.438873,447.798035 487.440399,458.420227 500.716400,465.405029 
	C507.607727,469.030762 514.878601,472.166992 522.297852,474.512726 
	C542.328613,480.845917 555.301697,476.412140 567.254883,459.048431 
	C579.181885,441.722931 585.898315,422.303070 587.927368,401.410400 
	C588.775635,392.676575 588.552185,383.835876 588.746948,375.042267 
	C588.904785,367.914642 589.494202,360.742126 588.929932,353.666260 
	C588.150208,343.888306 585.416687,334.534912 579.965881,325.651093 
	C567.620789,340.631592 550.799194,347.432770 533.788452,353.826660 
	C531.883179,354.542786 528.430298,354.709595 527.513123,353.612000 
	C526.277100,352.132812 526.414917,349.131378 526.689819,346.871674 
	C526.952087,344.716949 528.146790,342.675629 529.264954,339.696045 
	C514.278564,346.315063 501.418518,354.222076 490.460144,365.209412 
	C481.632599,374.060272 476.976532,384.339417 477.447784,396.967041 
	C477.898926,409.054535 481.665619,419.768372 490.028046,429.555695 
M513.503784,333.984985 
	C520.143677,330.914398 526.723755,327.704651 533.442017,324.816406 
	C539.004822,322.424774 542.838562,325.575409 542.073486,331.732666 
	C541.803589,333.905640 541.209351,336.038269 540.652039,338.725281 
	C556.110718,333.241913 567.830383,324.152740 576.595886,311.183167 
	C579.953552,306.215149 582.179199,306.190369 585.463440,311.074371 
	C592.231750,321.139526 596.982971,332.036957 598.923218,344.081879 
	C599.539795,347.910126 600.253235,351.722778 601.124329,356.695221 
	C609.251587,329.008453 599.028564,301.787781 574.431335,290.234161 
	C534.667908,271.556854 494.519287,270.627441 456.213654,294.630585 
	C430.650879,310.648804 419.331635,334.455170 424.143707,364.511810 
	C428.274811,390.314941 439.083832,413.386841 456.414581,433.191742 
	C458.559723,435.643158 460.697113,438.101318 462.838104,440.556366 
	C463.214935,440.259003 463.591766,439.961639 463.968597,439.664276 
	C463.767639,438.767029 463.626892,437.851166 463.355957,436.975555 
	C461.586487,431.256195 459.608093,425.594055 458.057983,419.816620 
	C456.838715,415.272156 459.304474,412.700165 463.923645,413.247925 
	C465.183868,413.397308 466.422302,413.729980 468.230316,414.089996 
	C467.829437,412.211456 467.583435,410.802307 467.225891,409.422058 
	C462.228424,390.128967 466.483704,373.353699 480.335876,358.835602 
	C489.868317,348.844879 500.912689,341.042023 513.503784,333.984985 
M550.901001,519.414734 
	C550.287048,508.722992 549.673096,498.031250 549.056335,487.290771 
	C526.813660,492.060913 507.907959,482.949890 488.942749,472.556213 
	C488.942749,475.401337 489.081818,478.024170 488.917206,480.627838 
	C488.382568,489.084625 488.141235,497.587372 487.042755,505.974915 
	C485.216125,519.921997 477.922913,530.364929 465.387360,536.990479 
	C462.232941,538.657776 459.073761,540.315979 455.837280,542.020264 
	C474.432098,570.767883 500.720093,590.331604 528.892761,607.816589 
	C532.604675,610.120361 535.454773,610.797791 539.071106,606.928955 
	C555.992310,588.825867 567.185730,567.648621 574.433044,543.733215 
	C563.245056,539.140686 554.228027,532.511719 550.901001,519.414734 
z"/>
<path fill="#F5F5F6" opacity="1.000000" stroke="none" 
	d="
M410.862183,555.124268 
	C397.592102,559.498352 384.222412,563.597839 371.092987,568.359619 
	C364.288818,570.827332 359.174927,575.723083 357.253754,583.077515 
	C351.700653,604.335388 346.097870,625.582397 340.833191,646.912292 
	C338.887726,654.794373 341.828156,661.215637 349.592499,663.695435 
	C363.988739,668.293274 378.586609,672.546814 393.383636,675.547791 
	C434.351929,683.856628 475.909607,686.934937 517.615051,685.602661 
	C545.033813,684.726746 572.380493,681.593933 599.759155,679.467346 
	C601.254028,679.351318 602.746765,679.068909 604.238708,679.081360 
	C608.462402,679.116577 609.286194,682.231140 609.736877,685.499634 
	C610.207703,688.914490 607.855652,689.793823 605.179077,690.094604 
	C587.479065,692.084045 569.816772,694.643982 552.062927,695.875427 
	C501.193542,699.403992 450.453156,697.866394 400.205322,688.723328 
	C381.904449,685.393311 363.822205,680.583618 345.904083,675.516113 
	C331.431885,671.423096 324.809357,659.447510 328.342834,644.872131 
	C333.558716,623.356995 339.377319,601.988281 344.894562,580.545776 
	C348.001373,568.471252 355.288177,560.176025 367.192047,556.388245 
	C382.083740,551.649780 397.081055,547.243103 412.544586,543.102295 
	C412.324982,547.382385 411.593567,551.253296 410.862183,555.124268 
z"/>
<path fill="#0AA4A5" opacity="1.000000" stroke="none" 
	d="
M410.978821,555.622864 
	C411.593567,551.253296 412.324982,547.382385 412.946808,543.083496 
	C415.704926,534.819458 419.119385,527.334290 425.919647,521.981079 
	C432.030701,517.170471 439.063141,515.139221 446.732513,515.128784 
	C454.942352,515.117615 457.733276,518.134949 457.309143,526.713196 
	C456.162933,528.345337 454.978851,529.609192 453.476715,530.941895 
	C441.265472,524.737915 432.610077,527.821167 427.229279,540.092468 
	C422.223541,551.508362 422.032043,563.401001 424.081207,575.333557 
	C426.243103,587.922363 429.215790,600.369995 431.558899,612.930664 
	C432.281921,616.806396 434.125824,618.374817 437.917358,619.229675 
	C449.092834,621.749451 456.143677,630.963379 456.103394,642.247437 
	C456.055115,655.770386 445.378082,665.660278 430.606110,665.865234 
	C415.908081,666.069092 404.329498,655.898254 404.228302,642.300720 
	C404.157593,632.799255 408.559082,625.554260 417.239380,621.636963 
	C420.502716,620.164307 420.774658,618.647644 420.181763,615.649170 
	C417.604767,602.616272 414.998840,589.581238 412.864319,576.471985 
	C411.773102,569.770142 411.653961,562.910034 410.978821,555.622864 
M440.688934,653.336365 
	C448.216431,646.336670 449.248566,637.543762 442.119171,631.826721 
	C438.703583,629.087708 433.427246,627.906189 428.870300,627.535522 
	C422.346771,627.004944 417.125427,631.625610 415.297821,637.912537 
	C413.626953,643.660278 416.353577,650.589172 421.621277,653.987183 
	C427.826782,657.990295 433.951843,656.967651 440.688934,653.336365 
z"/>
<path fill="#F4F5F6" opacity="1.000000" stroke="none" 
	d="
M616.191650,544.103577 
	C630.967285,549.123840 645.749939,554.123474 660.516357,559.170715 
	C673.268372,563.529419 680.988342,572.964783 684.479370,585.376770 
	C690.152344,605.546021 695.202942,625.905212 699.929932,646.320007 
	C702.793823,658.688293 698.075684,667.600403 686.102905,672.170288 
	C675.887634,676.069336 665.222717,678.872986 654.619385,681.633728 
	C650.038391,682.826599 650.185120,678.095520 649.209900,675.429016 
	C648.078796,672.336121 650.091614,670.914124 652.875671,670.158752 
	C660.091553,668.200989 667.315063,666.259705 674.470337,664.096375 
	C676.988464,663.335022 679.474609,662.196777 681.699707,660.793518 
	C686.317749,657.880981 688.813843,653.717102 687.387512,648.101379 
	C682.435547,628.604492 677.578796,609.079651 672.282166,589.675598 
	C669.514954,579.537781 662.522644,572.680603 652.765930,569.040649 
	C642.806335,565.325134 632.651794,562.131958 622.001953,558.315125 
	C619.678040,553.314697 617.934814,548.709106 616.191650,544.103577 
z"/>
<path fill="#0B9E9E" opacity="1.000000" stroke="none" 
	d="
M616.016052,543.787720 
	C617.934814,548.709106 619.678040,553.314697 621.624939,558.153809 
	C622.091370,561.569275 622.504272,564.747192 622.587219,567.933716 
	C622.796143,575.954590 625.414673,580.585266 634.569763,582.451233 
	C645.675903,584.714844 652.835205,596.556152 653.047241,608.135986 
	C653.430908,629.086182 648.173950,648.973022 641.928406,668.698975 
	C640.525391,673.130066 639.141235,677.598145 638.223694,682.145081 
	C636.680176,689.794006 640.757385,698.723816 647.432434,702.857300 
	C650.157410,704.544800 652.685425,705.705994 656.094421,703.296936 
	C659.931702,700.585327 664.599670,701.472595 667.367126,704.985413 
	C669.118469,707.208496 670.018250,711.205933 669.370483,713.952454 
	C668.438965,717.901917 664.475708,719.009094 660.490356,718.777100 
	C650.593079,718.200928 642.223816,714.170227 635.078491,707.437805 
	C633.909485,706.336365 632.887695,705.078674 632.007324,704.121033 
	C627.961792,708.916931 624.654602,714.053040 620.177612,717.786255 
	C616.095642,721.190186 610.929993,723.563538 605.891479,725.460266 
	C602.305481,726.810181 597.701538,726.520630 595.745728,722.505005 
	C594.644714,720.244446 594.548401,715.825439 595.998657,714.367554 
	C598.404419,711.949158 603.066956,709.173584 605.637451,710.018982 
	C612.754761,712.359619 615.795471,707.833496 618.483093,703.648010 
	C623.132568,696.406982 624.071106,688.399719 619.826050,680.407349 
	C617.569031,676.157959 615.161316,671.988586 613.161377,667.399414 
	C613.991150,667.015747 614.481201,667.015625 615.017090,667.367432 
	C618.043457,674.835327 622.738037,681.769043 623.519470,689.118835 
	C624.291260,696.378296 621.107300,704.058289 619.443115,712.669250 
	C621.467224,711.672729 623.078796,711.338989 623.951355,710.351990 
	C625.657715,708.421631 627.150330,706.233093 628.370300,703.957764 
	C630.291138,700.375122 631.957275,700.761780 634.847290,703.209900 
	C639.673645,707.298096 644.557129,711.912720 650.261414,714.180908 
	C654.746948,715.964478 660.508362,714.614746 665.698303,714.476807 
	C666.564331,714.453857 667.405884,713.511963 669.015869,712.535522 
	C665.116760,709.252197 662.159546,706.761902 660.088379,705.017822 
	C656.232605,705.494995 653.000732,706.812317 650.360046,706.058533 
	C640.403992,703.216309 634.341125,691.949646 636.445374,681.284729 
	C637.457275,676.156067 638.801453,671.092834 640.159668,665.681030 
	C640.895264,664.363220 641.728821,663.430176 641.998230,662.355774 
	C646.224548,645.503845 651.265076,628.883667 651.159790,611.146912 
	C651.058289,594.043091 641.606384,584.883362 627.380188,582.204407 
	C623.226440,581.422180 622.376587,579.344543 621.976013,575.885925 
	C620.522522,563.334961 617.422119,551.178162 611.422729,540.023132 
	C605.924194,529.799194 597.413330,523.267090 585.486084,522.455261 
	C583.096924,522.292603 580.582764,523.967224 578.126221,524.794739 
	C579.403992,527.812683 581.167297,530.196655 584.910706,530.012207 
	C585.242310,529.995911 585.581848,529.994141 585.908508,530.044861 
	C591.073303,530.847290 596.002014,532.104126 598.902222,537.074097 
	C598.774109,537.186523 598.513855,537.406738 598.513855,537.406738 
	C596.428650,536.158630 594.443420,534.679932 592.232666,533.721375 
	C589.531128,532.549988 586.553345,531.435913 584.838867,535.771667 
	C580.056702,536.985352 577.075745,533.893860 573.863159,530.866821 
	C574.549194,521.414307 578.214905,518.658020 587.613098,520.288025 
	C599.309937,522.316650 607.742432,528.878479 613.470276,539.124146 
	C614.275696,540.564819 615.051147,542.022217 616.016052,543.787720 
z"/>
<path fill="#06ACAC" opacity="1.000000" stroke="none" 
	d="
M591.437073,608.973755 
	C591.369873,607.590515 591.302734,606.207214 591.678833,604.296753 
	C593.018494,600.447327 593.914917,597.125061 594.811401,593.802856 
	C594.811401,593.802856 594.901978,593.885254 595.179993,593.793213 
	C595.902405,592.729553 596.346802,591.757996 596.791199,590.786377 
	C596.791199,590.786377 596.890259,590.809570 597.114502,590.765625 
	C597.496033,590.406494 597.653259,590.091309 597.810547,589.776123 
	C597.810486,589.776123 597.933350,589.927734 598.127014,589.820068 
	C598.483215,589.399597 598.645752,589.086792 598.808228,588.774048 
	C598.808228,588.774048 598.946960,588.923340 599.134583,588.818237 
	C599.485535,588.401550 599.648926,588.089905 599.812256,587.778320 
	C599.812256,587.778320 599.744812,587.809082 600.114502,587.834595 
	C602.655151,586.904785 604.826172,585.949463 606.998291,585.390747 
	C607.667175,587.861389 608.334900,589.935608 608.810425,592.278992 
	C608.063293,593.661011 607.508301,594.773865 606.842407,596.124512 
	C606.287109,596.618591 605.842651,596.874756 605.015381,597.217773 
	C604.156189,598.678406 603.679871,600.052185 603.250366,601.568420 
	C603.297119,601.710876 603.182922,601.988037 602.934570,602.103760 
	C602.741333,602.805542 602.796448,603.391602 602.877502,604.432373 
	C602.931641,607.925354 602.959839,610.963623 602.724548,614.228271 
	C603.145874,616.645874 603.830688,618.837036 604.667114,621.336670 
	C604.878174,622.096741 604.937622,622.548340 604.827698,623.101196 
	C604.825378,623.467529 604.992432,623.732605 605.217590,624.144653 
	C605.275635,624.291565 605.186951,624.594849 605.131104,625.009155 
	C605.796570,627.258850 606.517944,629.094116 607.434082,631.140564 
	C607.732788,631.908569 607.836731,632.465515 607.707397,633.213745 
	C608.062378,634.579651 608.650696,635.754333 609.442200,637.134399 
	C609.785706,637.891846 609.926147,638.443787 609.883972,639.097412 
	C609.896362,639.456909 610.091370,639.714722 610.442505,640.195312 
	C610.821899,641.095093 611.045044,641.772156 611.210022,642.842163 
	C612.195129,645.165283 613.238464,647.095276 614.341309,649.124146 
	C614.400818,649.223022 614.286011,649.423096 614.221802,649.831665 
	C615.440796,653.824402 616.724060,657.408569 617.649902,661.001465 
	C615.858459,661.674255 614.424316,662.338318 612.684814,662.841431 
	C611.173279,661.518982 609.967102,660.357544 608.760986,659.196045 
	C608.760986,659.196045 608.877380,659.003784 608.879272,658.782532 
	C608.324097,658.033691 607.767090,657.506165 607.210083,656.978638 
	C607.048401,656.673462 606.886719,656.368286 606.790283,655.395020 
	C604.390747,648.788208 601.956726,642.836365 599.447205,636.916626 
	C598.310974,634.236328 597.024902,631.619507 595.806763,628.973938 
	C595.619690,628.700867 595.528442,628.398804 595.675537,627.402222 
	C595.157654,623.177734 594.624268,619.588928 593.792847,616.070496 
	C593.221924,613.654297 592.236938,611.335876 591.437073,608.973755 
z"/>
<path fill="#0B9E9E" opacity="1.000000" stroke="none" 
	d="
M606.997192,584.994202 
	C604.826172,585.949463 602.655151,586.904785 600.113586,587.797485 
	C602.671875,585.781677 605.398926,583.339783 608.590149,582.021484 
	C611.411377,580.856201 612.565735,579.574280 612.055481,576.599609 
	C609.725891,563.020264 607.302368,549.483826 598.655762,537.718872 
	C598.513855,537.406738 598.774109,537.186523 599.238586,537.140015 
	C602.105103,540.782410 605.266479,544.193237 606.741638,548.221619 
	C609.330078,555.290100 610.730713,562.783508 612.913452,570.013123 
	C615.533691,578.692017 614.719177,581.056396 606.997192,584.994202 
z"/>
<path fill="#0B9E9E" opacity="1.000000" stroke="none" 
	d="
M595.807373,629.381165 
	C597.024902,631.619507 598.310974,634.236328 599.447205,636.916626 
	C601.956726,642.836365 604.390747,648.788208 606.803528,655.132324 
	C603.103699,646.954651 599.455872,638.371521 595.807373,629.381165 
z"/>
<path fill="#0B9E9E" opacity="1.000000" stroke="none" 
	d="
M591.331787,609.378723 
	C592.236938,611.335876 593.221924,613.654297 593.792847,616.070496 
	C594.624268,619.588928 595.157654,623.177734 595.749268,627.173950 
	C594.195801,621.668762 592.711182,615.726196 591.331787,609.378723 
z"/>
<path fill="#0B9E9E" opacity="1.000000" stroke="none" 
	d="
M608.763733,659.563843 
	C609.967102,660.357544 611.173279,661.518982 612.688477,663.173340 
	C613.004761,664.108582 613.011963,664.551025 612.941406,665.391724 
	C612.778320,666.046814 612.692993,666.303528 612.607666,666.560303 
	C611.327271,664.350708 610.046875,662.141174 608.763733,659.563843 
z"/>
<path fill="#0B9E9E" opacity="1.000000" stroke="none" 
	d="
M594.487549,593.939148 
	C593.914917,597.125061 593.018494,600.447327 591.808228,603.897705 
	C592.384216,600.709045 593.273987,597.392273 594.487549,593.939148 
z"/>
<path fill="#06ACAC" opacity="1.000000" stroke="none" 
	d="
M612.610962,666.693970 
	C612.692993,666.303528 612.778320,666.046814 613.267090,665.397461 
	C614.104065,665.675110 614.537659,666.345337 614.971313,667.015564 
	C614.481201,667.015625 613.991150,667.015747 613.131226,667.033386 
	C612.761414,667.050964 612.614319,666.827698 612.610962,666.693970 
z"/>
<path fill="#0B9E9E" opacity="1.000000" stroke="none" 
	d="
M596.474487,590.883362 
	C596.346802,591.757996 595.902405,592.729553 595.118958,593.788574 
	C595.239197,592.910767 595.698486,591.945557 596.474487,590.883362 
z"/>
<path fill="#0B9E9E" opacity="1.000000" stroke="none" 
	d="
M607.209900,657.285095 
	C607.767090,657.506165 608.324097,658.033691 608.839172,658.887512 
	C608.268066,658.672974 607.738892,658.132263 607.209900,657.285095 
z"/>
<path fill="#0B9E9E" opacity="1.000000" stroke="none" 
	d="
M597.548950,589.851257 
	C597.653259,590.091309 597.496033,590.406494 597.070801,590.791748 
	C596.964355,590.549927 597.125854,590.238159 597.548950,589.851257 
z"/>
<path fill="#0B9E9E" opacity="1.000000" stroke="none" 
	d="
M598.546021,588.840027 
	C598.645752,589.086792 598.483215,589.399597 598.046997,589.764221 
	C597.943542,589.512756 598.113708,589.209412 598.546021,588.840027 
z"/>
<path fill="#0B9E9E" opacity="1.000000" stroke="none" 
	d="
M599.549255,587.841675 
	C599.648926,588.089905 599.485535,588.401550 599.048706,588.763367 
	C598.945557,588.510742 599.115906,588.207886 599.549255,587.841675 
z"/>
<path fill="#1C1F2C" opacity="1.000000" stroke="none" 
	d="
M489.819885,429.252625 
	C481.665619,419.768372 477.898926,409.054535 477.447784,396.967041 
	C476.976532,384.339417 481.632599,374.060272 490.460144,365.209412 
	C501.418518,354.222076 514.278564,346.315063 529.264954,339.696045 
	C528.146790,342.675629 526.952087,344.716949 526.689819,346.871674 
	C526.414917,349.131378 526.277100,352.132812 527.513123,353.612000 
	C528.430298,354.709595 531.883179,354.542786 533.788452,353.826660 
	C550.799194,347.432770 567.620789,340.631592 579.965881,325.651093 
	C585.416687,334.534912 588.150208,343.888306 588.929932,353.666260 
	C589.494202,360.742126 588.904785,367.914642 588.746948,375.042267 
	C588.552185,383.835876 588.775635,392.676575 587.927368,401.410400 
	C585.898315,422.303070 579.181885,441.722931 567.254883,459.048431 
	C555.301697,476.412140 542.328613,480.845917 522.297852,474.512726 
	C514.878601,472.166992 507.607727,469.030762 500.716400,465.405029 
	C487.440399,458.420227 479.438873,447.798035 474.536377,431.956940 
	C477.955597,433.110077 481.087555,434.577148 484.377655,435.177246 
	C489.024139,436.024811 490.859619,433.950439 489.819885,429.252625 
z"/>
<path fill="#1D202D" opacity="1.000000" stroke="none" 
	d="
M513.202881,334.199951 
	C500.912689,341.042023 489.868317,348.844879 480.335876,358.835602 
	C466.483704,373.353699 462.228424,390.128967 467.225891,409.422058 
	C467.583435,410.802307 467.829437,412.211456 468.230316,414.089996 
	C466.422302,413.729980 465.183868,413.397308 463.923645,413.247925 
	C459.304474,412.700165 456.838715,415.272156 458.057983,419.816620 
	C459.608093,425.594055 461.586487,431.256195 463.355957,436.975555 
	C463.626892,437.851166 463.767639,438.767029 463.968597,439.664276 
	C463.591766,439.961639 463.214935,440.259003 462.838104,440.556366 
	C460.697113,438.101318 458.559723,435.643158 456.414581,433.191742 
	C439.083832,413.386841 428.274811,390.314941 424.143707,364.511810 
	C419.331635,334.455170 430.650879,310.648804 456.213654,294.630585 
	C494.519287,270.627441 534.667908,271.556854 574.431335,290.234161 
	C599.028564,301.787781 609.251587,329.008453 601.124329,356.695221 
	C600.253235,351.722778 599.539795,347.910126 598.923218,344.081879 
	C596.982971,332.036957 592.231750,321.139526 585.463440,311.074371 
	C582.179199,306.190369 579.953552,306.215149 576.595886,311.183167 
	C567.830383,324.152740 556.110718,333.241913 540.652039,338.725281 
	C541.209351,336.038269 541.803589,333.905640 542.073486,331.732666 
	C542.838562,325.575409 539.004822,322.424774 533.442017,324.816406 
	C526.723755,327.704651 520.143677,330.914398 513.202881,334.199951 
z"/>
<path fill="#1D212D" opacity="1.000000" stroke="none" 
	d="
M550.979126,519.821228 
	C554.228027,532.511719 563.245056,539.140686 574.433044,543.733215 
	C567.185730,567.648621 555.992310,588.825867 539.071106,606.928955 
	C535.454773,610.797791 532.604675,610.120361 528.892761,607.816589 
	C500.720093,590.331604 474.432098,570.767883 455.837280,542.020264 
	C459.073761,540.315979 462.232941,538.657776 465.387360,536.990479 
	C477.922913,530.364929 485.216125,519.921997 487.042755,505.974915 
	C488.141235,497.587372 488.382568,489.084625 488.917206,480.627838 
	C489.081818,478.024170 488.942749,475.401337 488.942749,472.556213 
	C507.907959,482.949890 526.813660,492.060913 549.056335,487.290771 
	C549.673096,498.031250 550.287048,508.722992 550.979126,519.821228 
z"/>
<path fill="#DEF7F7" opacity="1.000000" stroke="none" 
	d="
M440.365417,653.516235 
	C433.951843,656.967651 427.826782,657.990295 421.621277,653.987183 
	C416.353577,650.589172 413.626953,643.660278 415.297821,637.912537 
	C417.125427,631.625610 422.346771,627.004944 428.870300,627.535522 
	C433.427246,627.906189 438.703583,629.087708 442.119171,631.826721 
	C449.248566,637.543762 448.216431,646.336670 440.365417,653.516235 
M440.568665,638.195190 
	C439.695770,636.990112 438.942749,635.671448 437.928009,634.600708 
	C434.526459,631.011292 428.532684,630.765320 424.324280,633.940002 
	C419.749725,637.390869 418.890747,641.603455 421.754761,646.541992 
	C424.382599,651.073242 430.362640,653.283264 435.021332,651.444885 
	C440.072235,649.451660 442.071808,645.149414 440.568665,638.195190 
z"/>
<path fill="#04B0AF" opacity="1.000000" stroke="none" 
	d="
M606.998291,585.390747 
	C614.719177,581.056396 615.533691,578.692017 612.913452,570.013123 
	C610.730713,562.783508 609.330078,555.290100 606.741638,548.221619 
	C605.266479,544.193237 602.105103,540.782410 599.366699,537.027588 
	C596.002014,532.104126 591.073303,530.847290 585.908508,530.044861 
	C585.581848,529.994141 585.242310,529.995911 584.910706,530.012207 
	C581.167297,530.196655 579.403992,527.812683 578.126221,524.794739 
	C580.582764,523.967224 583.096924,522.292603 585.486084,522.455261 
	C597.413330,523.267090 605.924194,529.799194 611.422729,540.023132 
	C617.422119,551.178162 620.522522,563.334961 621.976013,575.885925 
	C622.376587,579.344543 623.226440,581.422180 627.380188,582.204407 
	C641.606384,584.883362 651.058289,594.043091 651.159790,611.146912 
	C651.265076,628.883667 646.224548,645.503845 641.998230,662.355774 
	C641.728821,663.430176 640.895264,664.363220 639.806641,665.619629 
	C637.526855,665.251526 635.764648,664.625793 634.041504,663.637878 
	C637.460022,656.108459 640.595154,648.890015 638.776550,640.485474 
	C638.734253,640.327576 638.844116,640.019714 639.152100,639.798584 
	C640.970947,630.547119 642.902283,621.557007 643.774109,612.465332 
	C644.097229,609.095215 641.933350,605.486694 640.833984,601.844849 
	C640.764282,601.702759 640.805054,601.388916 640.836792,601.013306 
	C640.403076,600.149963 639.937561,599.662231 639.311401,599.087219 
	C638.958618,598.828857 638.850464,598.615356 638.858765,597.979065 
	C635.447266,591.383606 629.288696,589.701721 623.243042,593.052917 
	C621.962646,593.762634 620.101318,593.765808 618.562378,593.596619 
	C615.356445,593.243958 612.187012,592.558533 609.002625,592.009766 
	C608.334900,589.935608 607.667175,587.861389 606.998291,585.390747 
z"/>
<path fill="#03B0B0" opacity="1.000000" stroke="none" 
	d="
M634.002441,664.000000 
	C635.764648,664.625793 637.526855,665.251526 639.642090,665.938599 
	C638.801453,671.092834 637.457275,676.156067 636.445374,681.284729 
	C634.341125,691.949646 640.403992,703.216309 650.360046,706.058533 
	C653.000732,706.812317 656.232605,705.494995 660.088379,705.017822 
	C662.159546,706.761902 665.116760,709.252197 669.015869,712.535522 
	C667.405884,713.511963 666.564331,714.453857 665.698303,714.476807 
	C660.508362,714.614746 654.746948,715.964478 650.261414,714.180908 
	C644.557129,711.912720 639.673645,707.298096 634.847290,703.209900 
	C631.957275,700.761780 630.291138,700.375122 628.370300,703.957764 
	C627.150330,706.233093 625.657715,708.421631 623.951355,710.351990 
	C623.078796,711.338989 621.467224,711.672729 619.443115,712.669250 
	C621.107300,704.058289 624.291260,696.378296 623.519470,689.118835 
	C622.738037,681.769043 618.043457,674.835327 615.017090,667.367432 
	C614.537659,666.345337 614.104065,665.675110 613.344849,664.999146 
	C613.011963,664.551025 613.004761,664.108582 612.993896,663.334290 
	C614.424316,662.338318 615.858459,661.674255 617.646240,661.004761 
	C618.000000,660.999268 618.006958,660.992676 618.065369,661.347168 
	C619.144287,662.089844 620.164795,662.477905 621.154968,662.834778 
	C621.124634,662.803589 621.210938,662.792786 621.141113,663.174072 
	C622.558105,666.021179 623.702332,668.808289 625.628662,670.861755 
	C627.534607,672.893494 629.722656,672.520752 631.007812,669.569153 
	C631.846313,667.643250 632.993530,665.851746 634.002441,664.000000 
z"/>
<path fill="#16232F" opacity="1.000000" stroke="none" 
	d="
M638.826294,598.359375 
	C638.850464,598.615356 638.958618,598.828857 639.395630,599.409302 
	C640.028748,600.342102 640.416870,600.865479 640.805054,601.388916 
	C640.805054,601.388916 640.764282,601.702759 640.820435,602.276245 
	C641.009827,607.471619 641.502136,612.117371 641.196228,616.709961 
	C640.677429,624.497559 639.654907,632.251587 638.844116,640.019714 
	C638.844116,640.019714 638.734253,640.327576 638.515076,640.771729 
	C635.524658,651.062927 633.647583,661.239441 628.103821,670.714966 
	C625.435120,667.647766 623.322998,665.220276 621.210938,662.792786 
	C621.210938,662.792786 621.124634,662.803589 621.155518,662.549927 
	C620.893494,661.821411 620.600647,661.346497 620.263794,660.501587 
	C618.241882,656.562073 616.263916,652.992554 614.286011,649.423096 
	C614.286011,649.423096 614.400818,649.223022 614.330566,648.738647 
	C613.263000,646.319214 612.265625,644.384155 611.268250,642.449158 
	C611.045044,641.772156 610.821899,641.095093 610.435913,639.940186 
	C610.204224,639.306824 610.135376,639.151306 610.066528,638.995728 
	C609.926147,638.443787 609.785706,637.891846 609.425781,636.774170 
	C608.784424,635.146484 608.362549,634.084473 607.940674,633.022400 
	C607.836731,632.465515 607.732788,631.908569 607.420044,630.763000 
	C606.536438,628.314514 605.861694,626.454651 605.186951,624.594849 
	C605.186951,624.594849 605.275635,624.291565 605.229004,623.886719 
	C605.120605,623.321228 605.058838,623.160583 604.997070,622.999939 
	C604.937622,622.548340 604.878174,622.096741 604.745972,620.971802 
	C604.111572,618.199585 603.549866,616.100708 602.988037,614.001831 
	C602.959839,610.963623 602.931641,607.925354 603.009521,604.117065 
	C603.138062,602.894043 603.160522,602.441040 603.182922,601.988037 
	C603.182922,601.988037 603.297119,601.710876 603.517090,601.332153 
	C604.290771,599.679260 604.844543,598.405151 605.398254,597.130981 
	C605.842651,596.874756 606.287109,596.618591 607.183228,596.037964 
	C610.829834,593.876953 613.705811,591.913391 617.558228,595.204041 
	C618.779663,596.247375 622.502686,595.522217 624.369202,594.410889 
	C628.353760,592.038391 631.619324,592.862976 634.953552,595.271912 
	C636.290283,596.237671 637.538025,597.326538 638.826294,598.359375 
z"/>
<path fill="#0B9E9E" opacity="1.000000" stroke="none" 
	d="
M638.858765,597.979065 
	C637.538025,597.326538 636.290283,596.237671 634.953552,595.271912 
	C631.619324,592.862976 628.353760,592.038391 624.369202,594.410889 
	C622.502686,595.522217 618.779663,596.247375 617.558228,595.204041 
	C613.705811,591.913391 610.829834,593.876953 607.294128,595.800049 
	C607.508301,594.773865 608.063293,593.661011 608.810425,592.278992 
	C612.187012,592.558533 615.356445,593.243958 618.562378,593.596619 
	C620.101318,593.765808 621.962646,593.762634 623.243042,593.052917 
	C629.288696,589.701721 635.447266,591.383606 638.858765,597.979065 
z"/>
<path fill="#0B9E9E" opacity="1.000000" stroke="none" 
	d="
M614.221802,649.831665 
	C616.263916,652.992554 618.241882,656.562073 619.879883,660.542847 
	C619.028931,660.966980 618.517944,660.979797 618.006958,660.992676 
	C618.006958,660.992676 618.000000,660.999268 618.003662,660.995972 
	C616.724060,657.408569 615.440796,653.824402 614.221802,649.831665 
z"/>
<path fill="#0B9E9E" opacity="1.000000" stroke="none" 
	d="
M602.724609,614.228271 
	C603.549866,616.100708 604.111572,618.199585 604.594360,620.663330 
	C603.830688,618.837036 603.145874,616.645874 602.724609,614.228271 
z"/>
<path fill="#0B9E9E" opacity="1.000000" stroke="none" 
	d="
M611.210022,642.842163 
	C612.265625,644.384155 613.263000,646.319214 614.271118,648.639771 
	C613.238464,647.095276 612.195129,645.165283 611.210022,642.842163 
z"/>
<path fill="#0B9E9E" opacity="1.000000" stroke="none" 
	d="
M605.131104,625.009155 
	C605.861694,626.454651 606.536438,628.314514 607.225220,630.551880 
	C606.517944,629.094116 605.796570,627.258850 605.131104,625.009155 
z"/>
<path fill="#0B9E9E" opacity="1.000000" stroke="none" 
	d="
M605.015381,597.217773 
	C604.844543,598.405151 604.290771,599.679260 603.470337,601.189697 
	C603.679871,600.052185 604.156189,598.678406 605.015381,597.217773 
z"/>
<path fill="#0B9E9E" opacity="1.000000" stroke="none" 
	d="
M607.707397,633.213745 
	C608.362549,634.084473 608.784424,635.146484 609.222656,636.568726 
	C608.650696,635.754333 608.062378,634.579651 607.707397,633.213745 
z"/>
<path fill="#0B9E9E" opacity="1.000000" stroke="none" 
	d="
M602.934570,602.103760 
	C603.160522,602.441040 603.138062,602.894043 602.983582,603.662354 
	C602.796448,603.391602 602.741333,602.805542 602.934570,602.103760 
z"/>
<path fill="#0B9E9E" opacity="1.000000" stroke="none" 
	d="
M609.883972,639.097412 
	C610.135376,639.151306 610.204224,639.306824 610.279663,639.717407 
	C610.091370,639.714722 609.896362,639.456909 609.883972,639.097412 
z"/>
<path fill="#0B9E9E" opacity="1.000000" stroke="none" 
	d="
M604.827698,623.101196 
	C605.058838,623.160583 605.120605,623.321228 605.170898,623.739746 
	C604.992432,623.732605 604.825378,623.467529 604.827698,623.101196 
z"/>
<path fill="#82A9A7" opacity="1.000000" stroke="none" 
	d="
M440.710052,638.548096 
	C442.071808,645.149414 440.072235,649.451660 435.021332,651.444885 
	C430.362640,653.283264 424.382599,651.073242 421.754761,646.541992 
	C418.890747,641.603455 419.749725,637.390869 424.324280,633.940002 
	C428.532684,630.765320 434.526459,631.011292 437.928009,634.600708 
	C438.942749,635.671448 439.695770,636.990112 440.710052,638.548096 
z"/>
<path fill="#0B9E9E" opacity="1.000000" stroke="none" 
	d="
M621.141113,663.174072 
	C623.322998,665.220276 625.435120,667.647766 628.103821,670.714966 
	C633.647583,661.239441 635.524658,651.062927 638.557373,640.929565 
	C640.595154,648.890015 637.460022,656.108459 634.041504,663.637878 
	C632.993530,665.851746 631.846313,667.643250 631.007812,669.569153 
	C629.722656,672.520752 627.534607,672.893494 625.628662,670.861755 
	C623.702332,668.808289 622.558105,666.021179 621.141113,663.174072 
z"/>
<path fill="#0B9E9E" opacity="1.000000" stroke="none" 
	d="
M639.152161,639.798584 
	C639.654907,632.251587 640.677429,624.497559 641.196228,616.709961 
	C641.502136,612.117371 641.009827,607.471619 640.890137,602.418335 
	C641.933350,605.486694 644.097229,609.095215 643.774109,612.465332 
	C642.902283,621.557007 640.970947,630.547119 639.152161,639.798584 
z"/>
<path fill="#0B9E9E" opacity="1.000000" stroke="none" 
	d="
M640.836792,601.013306 
	C640.416870,600.865479 640.028748,600.342102 639.556335,599.496582 
	C639.937561,599.662231 640.403076,600.149963 640.836792,601.013306 
z"/>
<path fill="#06ACAC" opacity="1.000000" stroke="none" 
	d="
M618.065369,661.347168 
	C618.517944,660.979797 619.028931,660.966980 619.923828,660.912842 
	C620.600647,661.346497 620.893494,661.821411 621.185852,662.581177 
	C620.164795,662.477905 619.144287,662.089844 618.065369,661.347168 
z"/>
</svg>